<?xml version="1.0" encoding="UTF-8" standalone="no"?>
<!-- Created with Inkscape (http://www.inkscape.org/) -->

<svg
   xmlns:dc="http://purl.org/dc/elements/1.1/"
   xmlns:cc="http://creativecommons.org/ns#"
   xmlns:rdf="http://www.w3.org/1999/02/22-rdf-syntax-ns#"
   xmlns:svg="http://www.w3.org/2000/svg"
   xmlns="http://www.w3.org/2000/svg"
   xmlns:sodipodi="http://sodipodi.sourceforge.net/DTD/sodipodi-0.dtd"
   xmlns:inkscape="http://www.inkscape.org/namespaces/inkscape"
   width="125"
   height="75"
   viewBox="0 0 125 75"
   id="svg2"
   version="1.1"
   inkscape:version="0.91 r13725"
   sodipodi:docname="DesarrolloDeSoftware.svg"
   inkscape:export-filename="/usr/local/ampps/www/Insperion/pictures/DesarrolloDeSoftware.png"
   inkscape:export-xdpi="90"
   inkscape:export-ydpi="90">
  <defs
     id="defs4" />
  <sodipodi:namedview
     id="base"
     pagecolor="#ffffff"
     bordercolor="#666666"
     borderopacity="1.0"
     inkscape:pageopacity="0.0"
     inkscape:pageshadow="2"
     inkscape:zoom="6.8533333"
     inkscape:cx="62.5"
     inkscape:cy="37.5"
     inkscape:document-units="px"
     inkscape:current-layer="layer1"
     showgrid="false"
     units="px"
     inkscape:window-width="1366"
     inkscape:window-height="704"
     inkscape:window-x="0"
     inkscape:window-y="27"
     inkscape:window-maximized="1" />
  <metadata
     id="metadata7">
    <rdf:RDF>
      <cc:Work
         rdf:about="">
        <dc:format>image/svg+xml</dc:format>
        <dc:type
           rdf:resource="http://purl.org/dc/dcmitype/StillImage" />
        <dc:title></dc:title>
      </cc:Work>
    </rdf:RDF>
  </metadata>
  <g
     inkscape:label="Capa 1"
     inkscape:groupmode="layer"
     id="layer1"
     transform="translate(0,-977.3622)">
    <flowRoot
       xml:space="preserve"
       id="flowRoot4300"
       style="font-style:normal;font-weight:normal;font-size:10px;line-height:125%;font-family:sans-serif;letter-spacing:0px;word-spacing:0px;fill:#000000;fill-opacity:1;stroke:none;stroke-width:1px;stroke-linecap:butt;stroke-linejoin:miter;stroke-opacity:1"
       transform="translate(0,952.36216)"><flowRegion
         id="flowRegion4302"><rect
           id="rect4304"
           width="73.20388"
           height="29.126213"
           x="10.679611"
           y="64.466019"
           style="font-size:10px" /></flowRegion><flowPara
         id="flowPara4306" /></flowRoot>    <g
       id="g4191"
       transform="matrix(0.42992556,0,0,0.42992556,8.6898817,593.51948)">
      <rect
         rx="0"
         ry="2.5097427"
         y="1037.4983"
         x="6.5577846"
         height="6.6253829"
         width="237.57756"
         id="rect3336"
         style="opacity:1;fill:#0058dc;fill-opacity:1;stroke:none;stroke-width:0;stroke-miterlimit:0;stroke-dasharray:none;stroke-opacity:1" />
      <path
         sodipodi:nodetypes="ccccc"
         inkscape:connector-curvature="0"
         id="rect4217"
         d="m 104.6647,1027.4707 44.99556,0 5.55312,4.9447 -56.944675,0 z"
         style="opacity:1;fill:#0058dc;fill-opacity:1;stroke:#0058dc;stroke-width:3.83016825;stroke-linecap:round;stroke-linejoin:round;stroke-miterlimit:4;stroke-dasharray:none;stroke-opacity:1" />
      <path
         sodipodi:nodetypes="ccccc"
         inkscape:connector-curvature="0"
         id="rect4217-6"
         d="m 54.287211,1015.4623 142.484709,0 10.46803,7.2997 -165.496797,0 z"
         style="opacity:1;fill:#0058dc;fill-opacity:1;stroke:#0058dc;stroke-width:0;stroke-linecap:round;stroke-linejoin:round;stroke-miterlimit:4;stroke-dasharray:none;stroke-opacity:1" />
      <rect
         transform="matrix(0.54973784,0.83533724,-0.83533724,0.54973784,0,0)"
         ry="0.83230323"
         y="523.01086"
         x="870.74384"
         height="42.107071"
         width="1.2878672"
         id="rect4243"
         style="opacity:1;fill:#0058dc;fill-opacity:1;stroke:none;stroke-width:1.5;stroke-linecap:round;stroke-linejoin:round;stroke-miterlimit:4;stroke-dasharray:none;stroke-opacity:1" />
      <rect
         transform="matrix(-0.54973784,0.83533724,0.83533724,0.54973784,0,0)"
         ry="0.83230323"
         y="731.73944"
         x="733.38068"
         height="42.107071"
         width="1.2878672"
         id="rect4243-4"
         style="opacity:1;fill:#0058dc;fill-opacity:1;stroke:none;stroke-width:1.5;stroke-linecap:round;stroke-linejoin:round;stroke-miterlimit:4;stroke-dasharray:none;stroke-opacity:1" />
      <rect
         ry="0.83276987"
         y="914.45178"
         x="44.335926"
         height="89.792206"
         width="162.75995"
         id="rect4237"
         style="opacity:1;fill:none;fill-opacity:1;stroke:#0058dc;stroke-width:6.17196035;stroke-linecap:round;stroke-linejoin:round;stroke-miterlimit:4;stroke-dasharray:none;stroke-opacity:1" />
      <g
         id="text4755"
         style="font-style:normal;font-weight:normal;font-size:61.08490753px;line-height:125%;font-family:sans-serif;letter-spacing:0px;word-spacing:0px;fill:#0058dc;fill-opacity:1;stroke:none;stroke-width:1px;stroke-linecap:butt;stroke-linejoin:miter;stroke-opacity:1">
        <path
           id="path4157"
           style="font-size:30.54245377px;fill:#0058dc;fill-opacity:1"
           d="m 83.676448,954.92777 -15.390534,5.47319 15.390534,5.44336 0,2.71422 -19.118861,-6.93469 0,-2.47561 19.118861,-6.93469 0,2.71422 z"
           inkscape:connector-curvature="0" />
        <path
           id="path4159"
           style="font-size:30.54245377px;fill:#0058dc;fill-opacity:1"
           d="m 106.58329,949.40985 0,3.17653 q -1.52116,-1.41676 -3.2511,-2.11768 -1.71503,-0.70093 -3.653763,-0.70093 -3.817807,0 -5.846017,2.34139 -2.028209,2.32648 -2.028209,6.74081 0,4.39943 2.028209,6.74082 2.02821,2.32648 5.846017,2.32648 1.938733,0 3.653763,-0.70093 1.72994,-0.70093 3.2511,-2.11769 l 0,3.14671 q -1.58081,1.07376 -3.3555,1.61064 -1.75977,0.53687 -3.728323,0.53687 -5.055611,0 -7.963706,-3.08705 -2.908095,-3.10197 -2.908095,-8.45585 0,-5.36879 2.908095,-8.45584 2.908095,-3.10197 7.963706,-3.10197 1.998383,0 3.758153,0.53688 1.77468,0.52197 3.32567,1.58081 z"
           inkscape:connector-curvature="0" />
        <path
           id="path4161"
           style="font-size:30.54245377px;fill:#0058dc;fill-opacity:1"
           d="m 117.61913,955.1813 q -2.20717,0 -3.48971,1.72994 -1.28254,1.71503 -1.28254,4.71261 0,2.99757 1.26763,4.72752 1.28254,1.71503 3.50462,1.71503 2.19226,0 3.4748,-1.72995 1.28255,-1.72994 1.28255,-4.7126 0,-2.96775 -1.28255,-4.69769 -1.28254,-1.74486 -3.4748,-1.74486 z m 0,-2.32648 q 3.5792,0 5.62232,2.32648 2.04312,2.32648 2.04312,6.44255 0,4.10116 -2.04312,6.44255 -2.04312,2.32647 -5.62232,2.32647 -3.5941,0 -5.63723,-2.32647 -2.02821,-2.34139 -2.02821,-6.44255 0,-4.11607 2.02821,-6.44255 2.04313,-2.32648 5.63723,-2.32648 z"
           inkscape:connector-curvature="0" />
        <path
           id="path4163"
           style="font-size:30.54245377px;fill:#0058dc;fill-opacity:1"
           d="m 140.80933,955.79275 0,-9.03747 2.74405,0 0,23.20511 -2.74405,0 0,-2.50544 q -0.86497,1.49133 -2.19226,2.22209 -1.31237,0.71583 -3.16162,0.71583 -3.0274,0 -4.9363,-2.41595 -1.89399,-2.41596 -1.89399,-6.35307 0,-3.93711 1.89399,-6.35307 1.9089,-2.41596 4.9363,-2.41596 1.84925,0 3.16162,0.73076 1.32729,0.71584 2.19226,2.20717 z m -9.35064,5.8311 q 0,3.0274 1.2378,4.75734 1.25272,1.71503 3.43006,1.71503 2.17734,0 3.43006,-1.71503 1.25272,-1.72994 1.25272,-4.75734 0,-3.0274 -1.25272,-4.74243 -1.25272,-1.72995 -3.43006,-1.72995 -2.17734,0 -3.43006,1.72995 -1.2378,1.71503 -1.2378,4.74243 z"
           inkscape:connector-curvature="0" />
        <path
           id="path4165"
           style="font-size:30.54245377px;fill:#0058dc;fill-opacity:1"
           d="m 163.49247,960.92292 0,1.3422 -12.61666,0 q 0.17896,2.83353 1.70012,4.32486 1.53607,1.47642 4.2652,1.47642 1.58081,0 3.05723,-0.38775 1.49133,-0.38774 2.95284,-1.16324 l 0,2.59492 q -1.47642,0.62636 -3.02741,0.95445 -1.55098,0.32809 -3.1467,0.32809 -3.99677,0 -6.33816,-2.32647 -2.32647,-2.32648 -2.32647,-6.29342 0,-4.10116 2.20716,-6.5022 2.22209,-2.41596 5.98024,-2.41596 3.37041,0 5.32405,2.17735 1.96856,2.16243 1.96856,5.89075 z m -2.74405,-0.80531 q -0.0298,-2.25191 -1.26763,-3.59411 -1.22289,-1.3422 -3.2511,-1.3422 -2.29665,0 -3.68359,1.29746 -1.37202,1.29746 -1.58081,3.65376 l 9.78313,-0.0149 z"
           inkscape:connector-curvature="0" />
        <path
           id="path4167"
           style="font-size:30.54245377px;fill:#0058dc;fill-opacity:1"
           d="m 168.35421,954.92777 0,-2.71422 19.11886,6.93469 0,2.47561 -19.11886,6.93469 0,-2.71422 15.36071,-5.44336 -15.36071,-5.47319 z"
           inkscape:connector-curvature="0" />
      </g>
      <g
         id="g4176">
        <rect
           rx="0"
           ry="2.5097427"
           y="1037.4983"
           x="6.5577846"
           height="6.6253829"
           width="237.57756"
           id="rect4150"
           style="opacity:1;fill:#0058dc;fill-opacity:1;stroke:none;stroke-width:0;stroke-miterlimit:0;stroke-dasharray:none;stroke-opacity:1" />
        <path
           sodipodi:nodetypes="ccccc"
           inkscape:connector-curvature="0"
           id="path4152"
           d="m 104.6647,1027.4707 44.99556,0 5.55312,4.9447 -56.944675,0 z"
           style="opacity:1;fill:#0058dc;fill-opacity:1;stroke:#0058dc;stroke-width:3.83016825;stroke-linecap:round;stroke-linejoin:round;stroke-miterlimit:4;stroke-dasharray:none;stroke-opacity:1" />
        <path
           sodipodi:nodetypes="ccccc"
           inkscape:connector-curvature="0"
           id="path4154"
           d="m 54.287211,1015.4623 142.484709,0 10.46803,7.2997 -165.496797,0 z"
           style="opacity:1;fill:#0058dc;fill-opacity:1;stroke:#0058dc;stroke-width:0;stroke-linecap:round;stroke-linejoin:round;stroke-miterlimit:4;stroke-dasharray:none;stroke-opacity:1" />
        <rect
           transform="matrix(0.54973784,0.83533724,-0.83533724,0.54973784,0,0)"
           ry="0.83230323"
           y="523.01086"
           x="870.74384"
           height="42.107071"
           width="1.2878672"
           id="rect4156"
           style="opacity:1;fill:#0058dc;fill-opacity:1;stroke:none;stroke-width:1.5;stroke-linecap:round;stroke-linejoin:round;stroke-miterlimit:4;stroke-dasharray:none;stroke-opacity:1" />
        <rect
           transform="matrix(-0.54973784,0.83533724,0.83533724,0.54973784,0,0)"
           ry="0.83230323"
           y="731.73944"
           x="733.38068"
           height="42.107071"
           width="1.2878672"
           id="rect4158"
           style="opacity:1;fill:#0058dc;fill-opacity:1;stroke:none;stroke-width:1.5;stroke-linecap:round;stroke-linejoin:round;stroke-miterlimit:4;stroke-dasharray:none;stroke-opacity:1" />
        <rect
           ry="0.83276987"
           y="914.45178"
           x="44.335926"
           height="89.792206"
           width="162.75995"
           id="rect4160"
           style="opacity:1;fill:none;fill-opacity:1;stroke:#0058dc;stroke-width:6.17196035;stroke-linecap:round;stroke-linejoin:round;stroke-miterlimit:4;stroke-dasharray:none;stroke-opacity:1" />
        <g
           id="g4162"
           style="font-style:normal;font-weight:normal;font-size:61.08490753px;line-height:125%;font-family:sans-serif;letter-spacing:0px;word-spacing:0px;fill:#0058dc;fill-opacity:1;stroke:none;stroke-width:1px;stroke-linecap:butt;stroke-linejoin:miter;stroke-opacity:1">
          <path
             id="path4164"
             style="font-size:30.54245377px;fill:#0058dc;fill-opacity:1"
             d="m 83.676448,954.92777 -15.390534,5.47319 15.390534,5.44336 0,2.71422 -19.118861,-6.93469 0,-2.47561 19.118861,-6.93469 0,2.71422 z"
             inkscape:connector-curvature="0" />
          <path
             id="path4166"
             style="font-size:30.54245377px;fill:#0058dc;fill-opacity:1"
             d="m 106.58329,949.40985 0,3.17653 q -1.52116,-1.41676 -3.2511,-2.11768 -1.71503,-0.70093 -3.653763,-0.70093 -3.817807,0 -5.846017,2.34139 -2.028209,2.32648 -2.028209,6.74081 0,4.39943 2.028209,6.74082 2.02821,2.32648 5.846017,2.32648 1.938733,0 3.653763,-0.70093 1.72994,-0.70093 3.2511,-2.11769 l 0,3.14671 q -1.58081,1.07376 -3.3555,1.61064 -1.75977,0.53687 -3.728323,0.53687 -5.055611,0 -7.963706,-3.08705 -2.908095,-3.10197 -2.908095,-8.45585 0,-5.36879 2.908095,-8.45584 2.908095,-3.10197 7.963706,-3.10197 1.998383,0 3.758153,0.53688 1.77468,0.52197 3.32567,1.58081 z"
             inkscape:connector-curvature="0" />
          <path
             id="path4168"
             style="font-size:30.54245377px;fill:#0058dc;fill-opacity:1"
             d="m 117.61913,955.1813 q -2.20717,0 -3.48971,1.72994 -1.28254,1.71503 -1.28254,4.71261 0,2.99757 1.26763,4.72752 1.28254,1.71503 3.50462,1.71503 2.19226,0 3.4748,-1.72995 1.28255,-1.72994 1.28255,-4.7126 0,-2.96775 -1.28255,-4.69769 -1.28254,-1.74486 -3.4748,-1.74486 z m 0,-2.32648 q 3.5792,0 5.62232,2.32648 2.04312,2.32648 2.04312,6.44255 0,4.10116 -2.04312,6.44255 -2.04312,2.32647 -5.62232,2.32647 -3.5941,0 -5.63723,-2.32647 -2.02821,-2.34139 -2.02821,-6.44255 0,-4.11607 2.02821,-6.44255 2.04313,-2.32648 5.63723,-2.32648 z"
             inkscape:connector-curvature="0" />
          <path
             id="path4170"
             style="font-size:30.54245377px;fill:#0058dc;fill-opacity:1"
             d="m 140.80933,955.79275 0,-9.03747 2.74405,0 0,23.20511 -2.74405,0 0,-2.50544 q -0.86497,1.49133 -2.19226,2.22209 -1.31237,0.71583 -3.16162,0.71583 -3.0274,0 -4.9363,-2.41595 -1.89399,-2.41596 -1.89399,-6.35307 0,-3.93711 1.89399,-6.35307 1.9089,-2.41596 4.9363,-2.41596 1.84925,0 3.16162,0.73076 1.32729,0.71584 2.19226,2.20717 z m -9.35064,5.8311 q 0,3.0274 1.2378,4.75734 1.25272,1.71503 3.43006,1.71503 2.17734,0 3.43006,-1.71503 1.25272,-1.72994 1.25272,-4.75734 0,-3.0274 -1.25272,-4.74243 -1.25272,-1.72995 -3.43006,-1.72995 -2.17734,0 -3.43006,1.72995 -1.2378,1.71503 -1.2378,4.74243 z"
             inkscape:connector-curvature="0" />
          <path
             id="path4172"
             style="font-size:30.54245377px;fill:#0058dc;fill-opacity:1"
             d="m 163.49247,960.92292 0,1.3422 -12.61666,0 q 0.17896,2.83353 1.70012,4.32486 1.53607,1.47642 4.2652,1.47642 1.58081,0 3.05723,-0.38775 1.49133,-0.38774 2.95284,-1.16324 l 0,2.59492 q -1.47642,0.62636 -3.02741,0.95445 -1.55098,0.32809 -3.1467,0.32809 -3.99677,0 -6.33816,-2.32647 -2.32647,-2.32648 -2.32647,-6.29342 0,-4.10116 2.20716,-6.5022 2.22209,-2.41596 5.98024,-2.41596 3.37041,0 5.32405,2.17735 1.96856,2.16243 1.96856,5.89075 z m -2.74405,-0.80531 q -0.0298,-2.25191 -1.26763,-3.59411 -1.22289,-1.3422 -3.2511,-1.3422 -2.29665,0 -3.68359,1.29746 -1.37202,1.29746 -1.58081,3.65376 l 9.78313,-0.0149 z"
             inkscape:connector-curvature="0" />
          <path
             id="path4174"
             style="font-size:30.54245377px;fill:#0058dc;fill-opacity:1"
             d="m 168.35421,954.92777 0,-2.71422 19.11886,6.93469 0,2.47561 -19.11886,6.93469 0,-2.71422 15.36071,-5.44336 -15.36071,-5.47319 z"
             inkscape:connector-curvature="0" />
        </g>
      </g>
    </g>
  </g>
</svg>
