<?xml version="1.0" encoding="UTF-8" standalone="no"?>
<!-- Created with Inkscape (http://www.inkscape.org/) -->

<svg
   xmlns:osb="http://www.openswatchbook.org/uri/2009/osb"
   xmlns:dc="http://purl.org/dc/elements/1.1/"
   xmlns:cc="http://creativecommons.org/ns#"
   xmlns:rdf="http://www.w3.org/1999/02/22-rdf-syntax-ns#"
   xmlns:svg="http://www.w3.org/2000/svg"
   xmlns="http://www.w3.org/2000/svg"
   xmlns:xlink="http://www.w3.org/1999/xlink"
   xmlns:sodipodi="http://sodipodi.sourceforge.net/DTD/sodipodi-0.dtd"
   xmlns:inkscape="http://www.inkscape.org/namespaces/inkscape"
   width="500"
   height="400"
   viewBox="0 0 500 400"
   id="svg2"
   version="1.1"
   inkscape:version="0.91 r13725"
   inkscape:export-filename="/home/sergioernestots/Documentos/Insperion/PROYECTOS/Sitio Web Insperion/Propuestas/Propuesta SETS/Insperion Website Soul/Insperion/pictures/Filosofia1.png"
   inkscape:export-xdpi="90"
   inkscape:export-ydpi="90"
   sodipodi:docname="filosofia.svg">
  <defs
     id="defs4">
    <linearGradient
       id="linearGradient5672"
       osb:paint="solid">
      <stop
         style="stop-color:#003e80;stop-opacity:1;"
         offset="0"
         id="stop5674" />
    </linearGradient>
    <linearGradient
       inkscape:collect="always"
       id="linearGradient5833">
      <stop
         style="stop-color:#000080;stop-opacity:1"
         offset="0"
         id="stop5835" />
      <stop
         style="stop-color:#0058dc;stop-opacity:0;"
         offset="1"
         id="stop5837" />
    </linearGradient>
    <radialGradient
       inkscape:collect="always"
       xlink:href="#linearGradient5833"
       id="radialGradient5839"
       cx="907.17383"
       cy="577.81799"
       fx="907.17383"
       fy="577.81799"
       r="101.45169"
       gradientUnits="userSpaceOnUse"
       gradientTransform="matrix(0.29259376,-0.36724338,0.35470495,0.28253695,-53.934735,943.64683)" />
  </defs>
  <sodipodi:namedview
     id="base"
     pagecolor="#ffffff"
     bordercolor="#666666"
     borderopacity="1.0"
     inkscape:pageopacity="0.0"
     inkscape:pageshadow="2"
     inkscape:zoom="0.9675"
     inkscape:cx="400"
     inkscape:cy="183.58462"
     inkscape:document-units="px"
     inkscape:current-layer="layer1"
     showgrid="false"
     units="px"
     inkscape:window-width="1366"
     inkscape:window-height="704"
     inkscape:window-x="0"
     inkscape:window-y="27"
     inkscape:window-maximized="1" />
  <metadata
     id="metadata7">
    <rdf:RDF>
      <cc:Work
         rdf:about="">
        <dc:format>image/svg+xml</dc:format>
        <dc:type
           rdf:resource="http://purl.org/dc/dcmitype/StillImage" />
        <dc:title></dc:title>
      </cc:Work>
    </rdf:RDF>
  </metadata>
  <g
     inkscape:label="Capa 1"
     inkscape:groupmode="layer"
     id="layer1"
     transform="translate(0,-652.36216)">
    <ellipse
       style="opacity:1;fill:#2253a3;fill-opacity:1;stroke:url(#radialGradient5839);stroke-width:0;stroke-miterlimit:0;stroke-dasharray:none;stroke-opacity:1"
       id="path5982"
       cx="413.06567"
       cy="841.09265"
       rx="65.714066"
       ry="64.632896" />
    <path
       style="opacity:1;fill:#ffffff;fill-opacity:1;stroke:#0058dc;stroke-width:0;stroke-miterlimit:0;stroke-dasharray:none;stroke-opacity:1"
       d="m 426.52475,829.85145 c 0.11359,-4.58445 -1.81395,-3.84996 -5.52781,-5.52127 -4.09306,-1.84126 -8.74008,-0.48401 -12.01919,0.045 -5.32024,0.84704 -0.65128,8.09166 1.79273,9.79363 l 3.26323,-4.00165 4.12164,0.62107 -3.72711,4.50229 8.80477,6.95139 10.45763,1.98901 4.32253,4.75808 7.39022,5.10758 -5.43259,16.40938 -21.63385,28.33181 0.44287,5.04393 -3.99276,-3.61605 8.3373,-30.99011 -16.63242,-6.96486 0.90963,-11.29131 9.3438,-8.07816 -3.25174,-5.23872 -6.22924,0.80285 -8.02391,-4.49693 -4.15826,-9.44412 -1.74171,1.97887 3.0293,6.93338 -1.03723,0.70183 -5.42787,-10.07897 -3.98193,-8.89651 c 0.82003,-4.14461 6.93447,-8.2895 2.46009,-12.4341 -4.46448,-1.26128 -13.28917,0.30589 -13.68421,-0.87238 -0.33759,-1.00716 13.22895,-2.54929 12.59116,-2.99026 -1.85066,-1.27985 -4.28274,-0.64499 -5.46318,-1.87983 l 3.51511,-2.20231 -7.38582,-2.34611 4.91847,-6.15755 9.35176,3.51539 c 5.91334,5.50016 15.98283,8.44371 20.34635,1.58349 l 2.3473,8.4302 4.99436,2.43027 2.08431,-12.64686 8.1193,1.77064 c 0.8326,1.03896 7.19506,3.259 8.66038,5.03104 1.84286,2.22877 -1.23323,4.04163 -0.91668,5.20637 0.35633,1.3111 -10.01433,5.65129 -10.42294,6.68828 1.51558,2.24678 5.95737,-1.6485 3.94204,6.12827 l -3.68543,10.48478 0.95079,5.15318 z"
       id="path6127"
       inkscape:connector-curvature="0"
       sodipodi:nodetypes="cssccccccccccccccccccccccccccssccccccccccssccccc" />
    <path
       style="opacity:1;fill:#ffffff;fill-opacity:1;stroke:#0058dc;stroke-width:0;stroke-miterlimit:0;stroke-dasharray:none;stroke-opacity:1"
       d="m 470.81097,836.20108 c 0.0575,-1.53115 2.53202,-0.17729 2.64231,-4.09958 0.2636,-9.37237 -1.05282,-4.17219 -1.45395,-7.61355 l -6.24727,2.63457 -2.78558,7.77395 -6.89909,3.10311 -5.90224,-9.21703 0.87841,-4.21581 c 3.04976,-1.87615 8.59878,-1.9966 8.6547,-5.97631 3.87908,-3.52776 3.97222,-7.4689 -0.82665,-11.94501 l 7.94771,0.26452 2.70724,2.76768 3.04733,-1.37554 4.03824,5.64396 3.84844,15.20684 -4.25035,-4.08663 1.56022,13.99002 -1.52858,-4.61485 -1.98308,3.17431 z"
       id="path6132"
       inkscape:connector-curvature="0"
       sodipodi:nodetypes="cscccccccccccccccccc" />
    <path
       style="opacity:1;fill:#ffffff;fill-opacity:1;stroke:#0058dc;stroke-width:0;stroke-miterlimit:0;stroke-dasharray:none;stroke-opacity:1"
       d="m 379.73304,888.80804 -6.26451,-4.28304 -0.69891,5.87828 c -8.65177,6.94553 -17.10176,0.29192 -18.14988,-2.37279 l -5.48072,-12.36034 6.19092,-8.50201 0.0217,4.45106 9.4665,-1.21176 0.1804,-5.9884 9.45405,4.05962 5.62786,9.31435 z"
       id="path6135"
       inkscape:connector-curvature="0"
       sodipodi:nodetypes="cccccccccccc" />
    <path
       style="opacity:1;fill:#ffffff;fill-opacity:1;stroke:#0058dc;stroke-width:0;stroke-miterlimit:0;stroke-dasharray:none;stroke-opacity:1"
       d="m 460.37143,854.52325 13.74522,-7.64901 0.62702,4.35538 5.16044,0.80315 -1.98943,15.29801 -9.76635,13.69679 9.76635,-0.17728 -9.76635,-8.18284 -6.69175,-1.60095 c -3.29424,-4.61794 -4.35121,-5.0119 -1.08515,-16.54296 z"
       id="rect6138"
       inkscape:connector-curvature="0"
       sodipodi:nodetypes="cccccccccc" />
    <path
       style="opacity:1;fill:#ffffff;fill-opacity:1;stroke:#0058dc;stroke-width:0;stroke-miterlimit:0;stroke-dasharray:none;stroke-opacity:1"
       d="m 349.32455,813.4323 c 1.32326,-11.72833 10.06822,-16.158 13.06127,-12.21236 0.62053,0.81778 3.07084,1.14479 2.85424,2.78456 l -4.49841,1.04741 1.59621,3.72024 -3.91274,-1.31644 -4.57912,9.17848 0.0888,4.7184 -3.34426,5.06511 c 6.1696,-26.51559 -1.26601,-7.70811 -1.26601,-12.9854 z"
       id="rect6172"
       inkscape:connector-curvature="0"
       sodipodi:nodetypes="cscccccccc" />
    <path
       style="opacity:1;fill:#ffffff;fill-opacity:1;stroke:#0058dc;stroke-width:0;stroke-miterlimit:0;stroke-dasharray:none;stroke-opacity:1"
       d="m 350.46187,841.65042 c -10e-6,2.55661 -2.62827,3.35976 -3.56754,5.02459 -0.92383,1.63724 -2.90329,4.50593 -1.5479,4.15755 4.97598,-1.27874 -5.08359,-4.11618 -5.11544,-9.18214 -0.0319,-5.07101 4.08066,-13.45872 6.90584,-13.45872 1.39457,0 3.32581,5.64481 3.32581,5.64481 -1.64098,1.01927 -6.7e-4,5.24605 -6.7e-4,7.81391 z"
       id="path6175"
       inkscape:connector-curvature="0"
       sodipodi:nodetypes="sssssss" />
    <path
       inkscape:connector-curvature="0"
       style="fill:#2253a3;fill-opacity:1;stroke:#000080;stroke-width:0;stroke-miterlimit:4;stroke-dasharray:none;stroke-opacity:1"
       d="m 358.02181,921.48643 c -1.53077,-0.001 -2.75269,1.02045 -3.44223,2.48795 l -8.2826,17.62576 c -0.77858,9.43707 -1.88951,18.59317 -8.09102,23.4508 -1.16306,0.91102 2.9e-4,8.47812 1.41683,11.90119 0,0 -3.59422,5.9796 -7.68375,10.10687 -10.9709,11.07213 -28.54935,26.3588 -17.39516,35.8558 2.74294,2.3354 29.99523,14.3912 34.73915,16.1647 11.55138,-0.8087 26.11127,-46.13162 48.59123,-35.8908 10.39164,-7.22748 21.77673,-6.8282 37.72195,-8.50207 16.21014,-12.15081 24.5129,-24.30419 24.93071,-40.24503 3.93574,-1.31426 7.4745,-6.83151 9.16797,-9.14811 3.22902,-4.41717 2.24612,-6.56609 2.04174,-11.5064 -4.32766,-2.21376 -5.55352,-0.0857 -6.80034,2.01372 l -5.91147,5.76078 -2.18308,-15.9543 c -4.37727,0.65247 -11.16198,-1.69151 -13.22341,10.54041 l 1.13533,14.89372 c -1.30033,0.43789 -2.95109,1.18948 -5.05528,2.39566 l 0.69498,-13.10661 -1.41683,-14.6788 c -5.26622,-2.11128 -10.189,0.58457 -14.82364,7.31546 -0.93266,5.65958 -1.62075,12.05126 -1.3012,21.46746 0.47027,0.74499 0.67851,1.60053 0.76158,2.41551 -1.79076,1.11443 -3.77806,2.13247 -4.9455,1.67965 0.2483,-8.08837 1.44417,-11.17872 1.69249,-16.21479 0.7918,-12.0928 0.16401,-16.76182 -10.49603,-6.76528 l -4.01224,5.99789 -2.05576,16.48343 c -8.1358,-0.16486 -13.98334,3.94379 -19.93615,3.49128 -8.64746,-0.65735 -15.82566,-2.06707 -22.71027,-2.89675 0.85443,-5.51602 2.50001,-11.65746 6.25022,-19.10568 0.83364,-1.65567 2.61881,-10.32682 2.09079,-12.09976 -1.97232,-6.62235 -6.84388,-5.11488 -10.79506,-5.86708 -0.23064,-0.0439 -0.45529,-0.0663 -0.67395,-0.0665 z"
       id="rect5122"
       sodipodi:nodetypes="cccscssccccscccccccccccccccccscssccc" />
    <path
       style="fill:#2253a3;fill-opacity:1;stroke:#000080;stroke-width:0;stroke-miterlimit:4;stroke-dasharray:none;stroke-opacity:1"
       d="m 266.31934,764.68872 c 0,6.89573 -8.73688,15.39763 -10.14465,21.87877 -3.67475,16.91796 16.88101,47.89182 6.93751,59.85063 -4.2624,5.12627 -12.95913,3.13899 -21.3373,5.29378 -5.73696,1.47546 3.95644,12.53349 -2.5826,13.62679 -4.05654,0.67821 -1.11857,3.82945 -6.70012,3.48268 -3.329,-0.20682 3.22061,13.09211 -0.63238,12.45078 -3.36896,-0.56077 -4.09301,2.85431 -8.17436,1.54436 -4.40445,-1.41368 -1.69105,17.3563 -5.10861,21.58732 -2.23068,1.30826 3.2888,-1.20334 1.05332,-0.21774 -23.0375,10.15731 -50.27607,7.52906 -71.41218,-7.28382 -10.90047,-7.63944 22.69257,-15.48624 16.38403,-8.07106 -3.89756,4.58129 7.89993,81.57043 -0.40143,64.50471 -7.39439,-15.20119 54.93972,37.41325 53.49276,53.28908 -2.15064,23.5967 3.86565,21.0008 -24.13407,23.739 -31.56748,3.0873 -139.589355,-12.004 -166.671641,-18.8911 -22.9885454,-98.1726 51.280824,-108.61161 34.716712,-94.77497 -3.570326,-7.51323 5.629071,-24.76576 18.72075,-63.25302 1.919403,-5.64271 12.747103,-12.71705 7.767549,-19.86015 -5.162042,-7.40484 3.090086,-7.98365 -4.459781,-18.39225 -14.803579,-20.40895 -10.532553,-37.69729 -10.991671,-50.50379 0,-52.74677 43.356332,-95.50645 96.839072,-95.50645 53.48276,0 96.83909,42.75968 96.83909,95.50645 z"
       id="path4136"
       inkscape:connector-curvature="0"
       sodipodi:nodetypes="sssssssscssssssccssscss" />
    <g
       transform="matrix(1.3306557,0.57278699,-0.46817082,1.3172643,-314.91599,401.32353)"
       style="font-style:normal;font-weight:normal;font-size:90px;line-height:125%;font-family:sans-serif;letter-spacing:0px;word-spacing:0px;fill:#ffffff;fill-opacity:1;stroke:none;stroke-width:1px;stroke-linecap:butt;stroke-linejoin:miter;stroke-opacity:1"
       id="flowRoot6127">
      <path
         d="m 395.19209,107.91081 8.41475,-3.29308 3.33394,10.5288 -8.41475,3.29307 -3.33394,-10.52879 z m 6.23656,-9.289183 -7.91732,3.098413 -2.02137,-6.383613 q -1.3257,-4.186642 -1.01823,-7.335233 0.30749,-3.148594 2.90935,-8.173446 l 2.56248,-5.149209 q 1.6671,-3.121608 2.08649,-5.475404 0.46084,-2.370012 -0.18233,-4.401157 -1.16819,-3.689224 -4.62593,-4.898426 -3.41629,-1.225425 -7.89311,0.526558 -3.2747,1.281542 -6.54597,4.192342 -3.22983,2.894583 -6.37123,7.2454 l -2.46765,-7.792966 q 3.14832,-3.887634 6.76019,-6.605606 3.65331,-2.734191 7.92286,-4.405063 7.62716,-2.984858 13.50153,-0.764666 5.91581,2.203971 8.0028,8.794831 0.99756,3.150348 0.41097,6.594526 -0.59972,3.402725 -3.20158,8.427578 l -2.51896,4.992408 q -1.33133,2.710679 -1.80597,4.154319 -0.44632,1.385969 -0.4498,2.552047 0.0269,0.967823 0.29636,2.260045 0.26941,1.292226 0.95195,3.447728 l 1.61447,5.098594 z"
         style="fill:#ffffff;fill-opacity:1;"
         id="path4190"
         inkscape:connector-curvature="0" />
    </g>
  </g>
</svg>
