<?xml version="1.0" encoding="UTF-8" standalone="no"?>
<svg
   xmlns:dc="http://purl.org/dc/elements/1.1/"
   xmlns:cc="http://creativecommons.org/ns#"
   xmlns:rdf="http://www.w3.org/1999/02/22-rdf-syntax-ns#"
   xmlns:svg="http://www.w3.org/2000/svg"
   xmlns="http://www.w3.org/2000/svg"
   xmlns:sodipodi="http://sodipodi.sourceforge.net/DTD/sodipodi-0.dtd"
   xmlns:inkscape="http://www.inkscape.org/namespaces/inkscape"
   width="48px"
   height="49px"
   viewBox="0 0 48 49"
   version="1.1"
   id="svg11"
   sodipodi:docname="Google-black.svg"
   inkscape:version="0.92pre3 r">
  <metadata
     id="metadata15">
    <rdf:RDF>
      <cc:Work
         rdf:about="">
        <dc:format>image/svg+xml</dc:format>
        <dc:type
           rdf:resource="http://purl.org/dc/dcmitype/StillImage" />
      </cc:Work>
    </rdf:RDF>
  </metadata>
  <sodipodi:namedview
     pagecolor="#ffffff"
     bordercolor="#666666"
     borderopacity="1"
     objecttolerance="10"
     gridtolerance="10"
     guidetolerance="10"
     inkscape:pageopacity="0"
     inkscape:pageshadow="2"
     inkscape:window-width="640"
     inkscape:window-height="480"
     id="namedview13"
     showgrid="false"
     inkscape:zoom="4.8163265"
     inkscape:cx="24"
     inkscape:cy="24.5"
     inkscape:window-x="0"
     inkscape:window-y="27"
     inkscape:window-maximized="0"
     inkscape:current-layer="svg11" />
  <!-- Generator: Sketch 3.7.2 (28276) - http://www.bohemiancoding.com/sketch -->
  <title
     id="title2">Google-black</title>
  <desc
     id="desc4">Created with Sketch.</desc>
  <defs
     id="defs6" />
  <g
     id="Icons"
     stroke="none"
     stroke-width="1"
     fill="none"
     fill-rule="evenodd"
     style="fill:#ffffff">
    <g
       id="Black"
       transform="translate(-400.000000, -860.000000)"
       fill="#0B0B0A"
       style="fill:#ffffff">
      <path
         d="M424.337382,879.648515 L424.337382,889.351485 C424.337382,889.351485 433.687756,889.338871 437.49499,889.338871 C435.4333,895.629064 432.227513,899.054455 424.337382,899.054455 C416.352552,899.054455 410.120495,892.538183 410.120495,884.5 C410.120495,876.461817 416.352552,869.945545 424.337382,869.945545 C428.559074,869.945545 431.285584,871.439317 433.786551,873.521332 C435.788481,871.506025 435.621252,871.218817 440.714512,866.376792 C436.390892,862.415069 430.644378,860 424.337382,860 C410.896159,860 400,870.968965 400,884.5 C400,898.030792 410.896159,909 424.337382,909 C444.428252,909 449.338861,891.389109 447.710907,879.648515 L424.337382,879.648515 L424.337382,879.648515 Z"
         id="Google"
         style="fill:#ffffff" />
    </g>
  </g>
</svg>
