<?xml version="1.0" encoding="UTF-8" standalone="no"?>
<!-- Created with Inkscape (http://www.inkscape.org/) -->

<svg
   xmlns:dc="http://purl.org/dc/elements/1.1/"
   xmlns:cc="http://creativecommons.org/ns#"
   xmlns:rdf="http://www.w3.org/1999/02/22-rdf-syntax-ns#"
   xmlns:svg="http://www.w3.org/2000/svg"
   xmlns="http://www.w3.org/2000/svg"
   xmlns:sodipodi="http://sodipodi.sourceforge.net/DTD/sodipodi-0.dtd"
   xmlns:inkscape="http://www.inkscape.org/namespaces/inkscape"
   width="85"
   height="30"
   viewBox="0 0 85 30.000001"
   id="svg4319"
   version="1.1"
   inkscape:version="0.91 r13725"
   sodipodi:docname="logo_insperion2.svg">
  <defs
     id="defs4321" />
  <sodipodi:namedview
     id="base"
     pagecolor="#ffffff"
     bordercolor="#666666"
     borderopacity="1.0"
     inkscape:pageopacity="0.0"
     inkscape:pageshadow="2"
     inkscape:zoom="8.1058824"
     inkscape:cx="42.5"
     inkscape:cy="15"
     inkscape:document-units="px"
     inkscape:current-layer="g6432"
     showgrid="false"
     units="px"
     inkscape:window-width="1366"
     inkscape:window-height="704"
     inkscape:window-x="0"
     inkscape:window-y="27"
     inkscape:window-maximized="1" />
  <metadata
     id="metadata4324">
    <rdf:RDF>
      <cc:Work
         rdf:about="">
        <dc:format>image/svg+xml</dc:format>
        <dc:type
           rdf:resource="http://purl.org/dc/dcmitype/StillImage" />
        <dc:title></dc:title>
      </cc:Work>
    </rdf:RDF>
  </metadata>
  <g
     inkscape:label="Capa 1"
     inkscape:groupmode="layer"
     id="layer1"
     transform="translate(0,-1022.3622)">
    <g
       id="g6432"
       transform="matrix(0.85784014,0,0,0.85784014,12.726057,157.02953)">
      <g
         id="g6496"
         transform="translate(-0.14381143,-25.454621)"
         style="fill:#ffffff">
        <g
           transform="matrix(0.44768456,0,0,0.44768456,-20.562957,921.60142)"
           style="font-style:normal;font-variant:normal;font-weight:normal;font-stretch:normal;font-size:40px;line-height:125%;font-family:sans-serif;-inkscape-font-specification:sans-serif;letter-spacing:0px;word-spacing:0px;fill:#ffffff;fill-opacity:1;stroke:none;stroke-width:1px;stroke-linecap:butt;stroke-linejoin:miter;stroke-opacity:1"
           id="flowRoot4139-1-7">
          <path
             style="fill:#ffffff"
             d="m 77.117187,303.78582 -3.671875,0 0,-12.42187 q 0,-1.50391 -0.175781,-2.8125 -0.175781,-1.32813 -0.644531,-2.07032 -0.488281,-0.82031 -1.40625,-1.21093 -0.917969,-0.41016 -2.382813,-0.41016 -1.503906,0 -3.144531,0.74219 -1.640625,0.74218 -3.144531,1.89453 l 0,16.28906 -3.671875,0 0,-21.81641 3.671875,0 0,2.42188 q 1.71875,-1.42578 3.554687,-2.22656 1.835938,-0.80078 3.769532,-0.80078 3.535156,0 5.390625,2.1289 1.855468,2.12891 1.855468,6.13281 l 0,14.16016 z"
             id="path4272-87-0"
             inkscape:connector-curvature="0" />
          <path
             style="fill:#ffffff"
             d="m 99.773437,297.49676 q 0,2.98828 -2.480468,4.90234 -2.460938,1.91406 -6.738282,1.91406 -2.421875,0 -4.453125,-0.5664 -2.011718,-0.58594 -3.378906,-1.26953 l 0,-4.1211 0.195313,0 q 1.738281,1.3086 3.867187,2.08985 2.128906,0.76172 4.082031,0.76172 2.421875,0 3.789063,-0.78125 1.367187,-0.78125 1.367187,-2.46094 0,-1.28906 -0.742187,-1.95313 -0.742188,-0.66406 -2.851563,-1.13281 -0.78125,-0.17578 -2.050781,-0.41016 -1.25,-0.23437 -2.285156,-0.50781 -2.871094,-0.76172 -4.082031,-2.22656 -1.191407,-1.48438 -1.191407,-3.63281 0,-1.34766 0.546875,-2.53907 0.566407,-1.1914 1.699219,-2.1289 1.09375,-0.91797 2.773438,-1.44531 1.699218,-0.54688 3.789062,-0.54688 1.953125,0 3.945313,0.48828 2.011718,0.46875 3.339843,1.15235 l 0,3.92578 -0.195312,0 q -1.40625,-1.03516 -3.417969,-1.73828 -2.011719,-0.72266 -3.945312,-0.72266 -2.011719,0 -3.398438,0.78125 -1.386719,0.76172 -1.386719,2.28516 0,1.34765 0.839844,2.03125 0.820313,0.68359 2.65625,1.11328 1.015625,0.23437 2.265625,0.46875 1.269531,0.23437 2.109375,0.42968 2.558594,0.58594 3.945313,2.01172 1.386718,1.44532 1.386718,3.82813 z"
             id="path4274-7-3"
             inkscape:connector-curvature="0" />
          <path
             style="fill:#ffffff"
             d="m 124.24609,292.61395 c 0,1.77083 -0.2539,3.39193 -0.76171,4.86328 -0.50781,1.45833 -1.22396,2.69531 -2.14844,3.71093 -0.85937,0.96355 -1.875,1.71225 -3.04688,2.2461 -1.15885,0.52083 -2.38932,0.78125 -3.6914,0.78125 -1.13281,0 -2.16146,-0.1237 -3.08594,-0.3711 -0.91146,-0.24739 -1.84245,-0.63151 -2.79297,-1.15234 l 0,20.75845 -3.67187,-6.176 0,-35.30511 3.67187,0 0,2.28516 c 0.97656,-0.82031 2.07031,-1.50391 3.28125,-2.05078 1.22396,-0.55989 2.52604,-0.83984 3.90625,-0.83984 2.63021,0 4.67448,0.99609 6.13281,2.98828 1.47135,1.97917 2.20703,4.73307 2.20703,8.26172 z m -3.78906,0.0976 c 0,-2.63021 -0.44922,-4.59635 -1.34765,-5.89844 -0.89844,-1.30208 -2.27865,-1.95312 -4.14063,-1.95312 -1.05469,0 -2.11588,0.22786 -3.18359,0.68359 -1.06771,0.45573 -2.08985,1.05469 -3.06641,1.79688 l 0,12.36328 c 1.04167,0.46875 1.93359,0.78776 2.67578,0.95703 0.75521,0.16927 1.60807,0.25391 2.5586,0.25391 2.04427,0 3.63932,-0.69011 4.78515,-2.07032 1.14583,-1.38021 1.71875,-3.42448 1.71875,-6.13281 z"
             id="path4276-3-6"
             inkscape:connector-curvature="0"
             sodipodi:nodetypes="scccsccccccccscssssscccsss" />
          <path
             style="fill:#ffffff"
             d="m 148.23047,293.25848 -16.07422,0 q 0,2.01172 0.60547,3.51562 0.60547,1.48438 1.66015,2.44141 1.01563,0.9375 2.40235,1.40625 1.40625,0.46875 3.08594,0.46875 2.22656,0 4.47265,-0.87891 2.26563,-0.89844 3.22266,-1.75781 l 0.19531,0 0,4.00391 q -1.85547,0.78125 -3.78906,1.30859 -1.9336,0.52734 -4.0625,0.52734 -5.42969,0 -8.47656,-2.92968 -3.04688,-2.94922 -3.04688,-8.35938 0,-5.35156 2.91016,-8.49609 2.92968,-3.14453 7.69531,-3.14453 4.41406,0 6.79687,2.57812 2.40235,2.57813 2.40235,7.32422 l 0,1.99219 z m -3.57422,-2.8125 q -0.0195,-2.89063 -1.46484,-4.47266 -1.42579,-1.58203 -4.35547,-1.58203 -2.94922,0 -4.70703,1.73828 -1.73829,1.73828 -1.97266,4.31641 l 12.5,0 z"
             id="path4278-8-6"
             inkscape:connector-curvature="0" />
          <path
             style="fill:#ffffff"
             d="m 167.41016,285.97332 -0.19532,0 q -0.82031,-0.19531 -1.60156,-0.27344 -0.76172,-0.0976 -1.81641,-0.0976 -1.69921,0 -3.28125,0.76172 -1.58203,0.74218 -3.04687,1.93359 l 0,15.48828 -3.67188,0 0,-21.81641 3.67188,0 0,3.22266 q 2.1875,-1.75781 3.84766,-2.48047 1.67968,-0.74219 3.41796,-0.74219 0.95704,0 1.38672,0.0586 0.42969,0.0391 1.28907,0.17578 l 0,3.76953 z"
             id="path4280-9-4"
             inkscape:connector-curvature="0" />
          <path
             style="fill:#ffffff"
             d="m 174.85156,278.31707 -4.14062,0 0,-3.80859 4.14062,0 0,3.80859 z m -0.23437,25.46875 -3.67188,0 0,-21.81641 3.67188,0 0,21.81641 z"
             id="path4282-3-9"
             inkscape:connector-curvature="0" />
          <path
             style="fill:#ffffff"
             d="m 200.35937,292.88738 q 0,5.33203 -2.73437,8.41797 -2.73438,3.08594 -7.32422,3.08594 -4.62891,0 -7.36328,-3.08594 -2.71484,-3.08594 -2.71484,-8.41797 0,-5.33203 2.71484,-8.41797 2.73437,-3.10546 7.36328,-3.10546 4.58984,0 7.32422,3.10546 2.73437,3.08594 2.73437,8.41797 z m -3.78906,0 q 0,-4.23828 -1.66015,-6.28906 -1.66016,-2.07031 -4.60938,-2.07031 -2.98828,0 -4.64844,2.07031 -1.64062,2.05078 -1.64062,6.28906 0,4.10157 1.66015,6.23047 1.66016,2.10938 4.62891,2.10938 2.92969,0 4.58984,-2.08985 1.67969,-2.10937 1.67969,-6.25 z"
             id="path4284-8-7"
             inkscape:connector-curvature="0" />
          <path
             style="fill:#ffffff"
             d="m 224.30469,303.78582 -3.67188,0 0,-12.42187 q 0,-1.50391 -0.17578,-2.8125 -0.17578,-1.32813 -0.64453,-2.07032 -0.48828,-0.82031 -1.40625,-1.21093 -0.91797,-0.41016 -2.38281,-0.41016 -1.50391,0 -3.14453,0.74219 -1.64063,0.74218 -3.14454,1.89453 l 0,16.28906 -3.67187,0 0,-21.81641 3.67187,0 0,2.42188 q 1.71875,-1.42578 3.55469,-2.22656 1.83594,-0.80078 3.76953,-0.80078 3.53516,0 5.39063,2.1289 1.85547,2.12891 1.85547,6.13281 l 0,14.16016 z"
             id="path4286-2-8"
             inkscape:connector-curvature="0" />
        </g>
        <path
           style="opacity:1;fill:#ffffff;fill-opacity:1;stroke:none;stroke-width:10;stroke-miterlimit:4;stroke-dasharray:none;stroke-opacity:1"
           d="m 54.955542,1045.056 c -60.6106968,-9.0331 -66.69372,-2.7673 -55.88945356,7.4219 -17.69296944,-8.791 -17.12806444,-24.1491 55.88945356,-7.4219 z"
           id="rect4158-7-2-8"
           inkscape:connector-curvature="0"
           sodipodi:nodetypes="ccc"
           inkscape:export-filename="E:\Users\Sergio Ernesto TS\Pictures\Created Pictures\Splash Pictures\curve_insperion.png"
           inkscape:export-xdpi="90"
           inkscape:export-ydpi="90" />
        <path
           style="opacity:1;fill:#ffffff;fill-opacity:1;stroke:none;stroke-width:10;stroke-miterlimit:4;stroke-dasharray:none;stroke-opacity:1"
           d="m 1.4348351,1044.9392 1.5226369,-1.3458 0,14.0082 -1.5226369,1.4465 z"
           id="rect4393-6-4"
           inkscape:connector-curvature="0"
           sodipodi:nodetypes="ccccc" />
        <path
           style="opacity:1;fill:#ffffff;fill-opacity:1;stroke:none;stroke-width:10;stroke-miterlimit:4;stroke-dasharray:none;stroke-opacity:1"
           d="m 58.279892,1045.1768 a 1.4549486,1.4549486 0 0 1 -1.454948,1.455 1.4549486,1.4549486 0 0 1 -1.454949,-1.455 1.4549486,1.4549486 0 0 1 1.454949,-1.4549 1.4549486,1.4549486 0 0 1 1.454948,1.4549 z"
           id="path4413-5-4"
           inkscape:connector-curvature="0" />
      </g>
    </g>
  </g>
</svg>
