<?xml version="1.0" encoding="UTF-8" standalone="no"?>
<!-- Created with Inkscape (http://www.inkscape.org/) -->

<svg
   xmlns:dc="http://purl.org/dc/elements/1.1/"
   xmlns:cc="http://creativecommons.org/ns#"
   xmlns:rdf="http://www.w3.org/1999/02/22-rdf-syntax-ns#"
   xmlns:svg="http://www.w3.org/2000/svg"
   xmlns="http://www.w3.org/2000/svg"
   xmlns:sodipodi="http://sodipodi.sourceforge.net/DTD/sodipodi-0.dtd"
   xmlns:inkscape="http://www.inkscape.org/namespaces/inkscape"
   width="600"
   height="200"
   viewBox="0 0 600.00001 200.00001"
   id="svg4865"
   version="1.1"
   inkscape:version="0.92pre2 r"
   sodipodi:docname="insperion.svg">
  <defs
     id="defs4867" />
  <sodipodi:namedview
     id="base"
     pagecolor="#ffffff"
     bordercolor="#666666"
     borderopacity="1.0"
     inkscape:pageopacity="0.0"
     inkscape:pageshadow="2"
     inkscape:zoom="1.2066667"
     inkscape:cx="304.78539"
     inkscape:cy="100"
     inkscape:document-units="px"
     inkscape:current-layer="layer1"
     showgrid="false"
     units="px"
     inkscape:window-width="1366"
     inkscape:window-height="704"
     inkscape:window-x="0"
     inkscape:window-y="27"
     inkscape:window-maximized="1" />
  <metadata
     id="metadata4870">
    <rdf:RDF>
      <cc:Work
         rdf:about="">
        <dc:format>image/svg+xml</dc:format>
        <dc:type
           rdf:resource="http://purl.org/dc/dcmitype/StillImage" />
        <dc:title />
      </cc:Work>
    </rdf:RDF>
  </metadata>
  <g
     inkscape:label="Capa 1"
     inkscape:groupmode="layer"
     id="layer1"
     transform="translate(0,-852.36216)">
    <g
       id="g4496"
       transform="matrix(0.86336328,0,0,0.86336328,-416.34118,365.18436)">
      <g
         id="g4461">
        <g
           id="g4427">
          <path
             d="m 655.45887,717.39008 h -11.39999 v -38.56591 q 0,-4.66915 -0.54574,-8.7319 -0.54575,-4.12342 -2.00106,-6.42768 -1.51596,-2.5468 -4.36596,-3.75955 -2.84999,-1.27341 -7.39786,-1.27341 -4.66915,0 -9.76276,2.30426 -5.09361,2.30423 -9.76276,5.8819 v 50.57229 h -11.39999 v -67.73293 h 11.39999 v 7.51916 q 5.33617,-4.42659 11.03616,-6.91275 5.7,-2.48617 11.70319,-2.48617 10.97552,0 16.73615,6.60955 5.76063,6.60958 5.76063,19.0404 z"
             id="path4272"
             inkscape:connector-curvature="0"
             style="font-style:normal;font-variant:normal;font-weight:normal;font-stretch:normal;font-size:medium;line-height:125%;font-family:sans-serif;-inkscape-font-specification:sans-serif;letter-spacing:0px;word-spacing:0px;fill:#000000;fill-opacity:1;stroke:none;stroke-width:1px;stroke-linecap:butt;stroke-linejoin:miter;stroke-opacity:1" />
          <path
             d="m 725.79923,697.86458 q 0,9.27764 -7.70105,15.22018 -7.64042,5.94254 -20.9202,5.94254 -7.51914,0 -13.82552,-1.75849 -6.24573,-1.81915 -10.49041,-3.94148 v -12.79469 h 0.60638 q 5.39681,4.06278 12.00637,6.48831 6.60957,2.3649 12.6734,2.3649 7.51914,0 11.76382,-2.42553 4.24467,-2.42553 4.24467,-7.64043 0,-4.00211 -2.30425,-6.06384 -2.30425,-2.06169 -8.85318,-3.51701 -2.42553,-0.54574 -6.36702,-1.27341 -3.88085,-0.72765 -7.09467,-1.57659 -8.91383,-2.36489 -12.6734,-6.91275 -3.69893,-4.60852 -3.69893,-11.27871 0,-4.18405 1.69787,-7.88299 1.75851,-3.69891 5.27553,-6.60955 3.39574,-2.85 8.61063,-4.48722 5.27552,-1.69789 11.76382,-1.69789 6.06382,0 12.24892,1.51595 6.24574,1.45532 10.36914,3.57768 v 12.18828 h -0.60638 q -4.36595,-3.21384 -10.61169,-5.3968 -6.24574,-2.24362 -12.24893,-2.24362 -6.24574,0 -10.55105,2.42553 -4.30532,2.36489 -4.30532,7.09468 0,4.18402 2.60745,6.30638 2.5468,2.12233 8.2468,3.45638 3.15319,0.72764 7.03403,1.45531 3.94149,0.72765 6.54893,1.33402 7.94362,1.81916 12.24893,6.24574 4.30531,4.48726 4.30531,11.88512 z"
             id="path4274"
             inkscape:connector-curvature="0"
             style="font-style:normal;font-variant:normal;font-weight:normal;font-stretch:normal;font-size:medium;line-height:125%;font-family:sans-serif;-inkscape-font-specification:sans-serif;letter-spacing:0px;word-spacing:0px;fill:#000000;fill-opacity:1;stroke:none;stroke-width:1px;stroke-linecap:butt;stroke-linejoin:miter;stroke-opacity:1" />
          <path
             d="m 801.77894,682.70502 c 0,5.49786 -0.78827,10.53085 -2.36486,15.09892 -1.57659,4.52765 -3.8,8.36807 -6.67021,11.52124 -2.66807,2.99152 -5.82128,5.31599 -9.45959,6.97342 -3.59785,1.61701 -7.41807,2.42553 -11.4606,2.42553 -3.51702,0 -6.71064,-0.38405 -9.58086,-1.15214 -2.82978,-0.76807 -5.72021,-1.96064 -8.67127,-3.57765 v 64.44831 l -11.39997,-19.1745 v -109.611 h 11.39997 v 7.09469 c 3.03191,-2.5468 6.42765,-4.66916 10.18723,-6.36701 3.8,-1.73828 7.84254,-2.60744 12.12765,-2.60744 8.16595,0 14.51275,3.09254 19.0404,9.27765 4.56807,6.14469 6.85211,14.69466 6.85211,25.64998 z m -11.76381,0.30302 c 0,-8.16596 -1.39468,-14.27019 -4.18402,-18.31276 -2.78936,-4.04254 -7.07447,-6.06381 -12.85532,-6.06381 -3.27447,0 -6.56913,0.70743 -9.88402,2.12233 -3.3149,1.41489 -6.48831,3.27447 -9.52022,5.57873 v 38.38401 c 3.23405,1.45532 6.00318,2.44574 8.30744,2.97127 2.34468,0.52553 4.99254,0.78831 7.94363,0.78831 6.3468,0 11.29891,-2.14257 14.85635,-6.42768 3.55743,-4.28511 5.33616,-10.63191 5.33616,-19.0404 z"
             id="path4276"
             inkscape:connector-curvature="0"
             sodipodi:nodetypes="scccsccccccccscssssscccsss"
             style="font-style:normal;font-variant:normal;font-weight:normal;font-stretch:normal;font-size:medium;line-height:125%;font-family:sans-serif;-inkscape-font-specification:sans-serif;letter-spacing:0px;word-spacing:0px;fill:#000000;fill-opacity:1;stroke:none;stroke-width:1px;stroke-linecap:butt;stroke-linejoin:miter;stroke-opacity:1" />
          <path
             d="m 876.24272,684.70608 h -49.90527 q 0,6.24574 1.87978,10.91487 1.87979,4.60852 5.15424,7.57979 3.1532,2.91064 7.45852,4.36595 4.36595,1.45532 9.58085,1.45532 6.91275,0 13.88614,-2.72873 7.03405,-2.78937 10.00532,-5.45743 h 0.60637 v 12.43085 q -5.76063,2.42553 -11.76381,4.06275 -6.0032,1.63722 -12.61275,1.63722 -16.85744,0 -26.31699,-9.09571 -9.45958,-9.15638 -9.45958,-25.95319 0,-16.61487 9.03511,-26.37762 9.09571,-9.76276 23.89146,-9.76276 13.70423,0 21.10209,8.00424 7.45852,8.00426 7.45852,22.73934 z m -11.0968,-8.73191 q -0.0605,-8.97447 -4.54786,-13.88617 -4.42661,-4.91169 -13.52233,-4.91169 -9.15638,0 -14.61381,5.3968 -5.39683,5.3968 -6.12447,13.40106 z"
             id="path4278"
             inkscape:connector-curvature="0"
             style="font-style:normal;font-variant:normal;font-weight:normal;font-stretch:normal;font-size:medium;line-height:125%;font-family:sans-serif;-inkscape-font-specification:sans-serif;letter-spacing:0px;word-spacing:0px;fill:#000000;fill-opacity:1;stroke:none;stroke-width:1px;stroke-linecap:butt;stroke-linejoin:miter;stroke-opacity:1" />
          <path
             d="m 935.78949,662.088 h -0.60641 q -2.5468,-0.60637 -4.97233,-0.84894 -2.36489,-0.30302 -5.63936,-0.30302 -5.2755,0 -10.18723,2.3649 -4.91169,2.30423 -9.45955,6.00317 v 48.08613 H 893.5246 v -67.73293 h 11.40001 v 10.00532 q 6.79148,-5.45743 11.94575,-7.70106 5.21486,-2.30426 10.61166,-2.30426 2.9713,0 4.30532,0.18193 1.33405,0.12139 4.00215,0.54574 v 11.70318 z"
             id="path4280"
             inkscape:connector-curvature="0"
             style="font-style:normal;font-variant:normal;font-weight:normal;font-stretch:normal;font-size:medium;line-height:125%;font-family:sans-serif;-inkscape-font-specification:sans-serif;letter-spacing:0px;word-spacing:0px;fill:#000000;fill-opacity:1;stroke:none;stroke-width:1px;stroke-linecap:butt;stroke-linejoin:miter;stroke-opacity:1" />
          <path
             d="m 958.89264,638.31781 h -12.85529 v -11.82444 h 12.85529 z M 958.165,717.39008 H 946.76499 V 649.65715 H 958.165 Z"
             id="path4282"
             inkscape:connector-curvature="0"
             style="font-style:normal;font-variant:normal;font-weight:normal;font-stretch:normal;font-size:medium;line-height:125%;font-family:sans-serif;-inkscape-font-specification:sans-serif;letter-spacing:0px;word-spacing:0px;fill:#000000;fill-opacity:1;stroke:none;stroke-width:1px;stroke-linecap:butt;stroke-linejoin:miter;stroke-opacity:1" />
          <path
             d="m 1038.0862,683.55393 q 0,16.55424 -8.4894,26.13509 -8.4893,9.58085 -22.7393,9.58085 -14.37128,0 -22.86062,-9.58085 -8.4287,-9.58085 -8.4287,-26.13509 0,-16.55423 8.4287,-26.13508 8.48934,-9.64146 22.86062,-9.64146 14.25,0 22.7393,9.64146 8.4894,9.58085 8.4894,26.13508 z m -11.7638,0 q 0,-13.15849 -5.1543,-19.5255 -5.1542,-6.42765 -14.3106,-6.42765 -9.27765,0 -14.43192,6.42765 -5.09359,6.36701 -5.09359,19.5255 0,12.73406 5.15423,19.34361 5.15426,6.54894 14.37128,6.54894 9.0957,0 14.25,-6.48831 5.2149,-6.54891 5.2149,-19.40424 z"
             id="path4284"
             inkscape:connector-curvature="0"
             style="font-style:normal;font-variant:normal;font-weight:normal;font-stretch:normal;font-size:medium;line-height:125%;font-family:sans-serif;-inkscape-font-specification:sans-serif;letter-spacing:0px;word-spacing:0px;fill:#000000;fill-opacity:1;stroke:none;stroke-width:1px;stroke-linecap:butt;stroke-linejoin:miter;stroke-opacity:1" />
          <path
             d="m 1112.4287,717.39008 h -11.4 v -38.56591 q 0,-4.66915 -0.5458,-8.7319 -0.5457,-4.12342 -2.001,-6.42768 -1.516,-2.5468 -4.366,-3.75955 -2.85,-1.27341 -7.3978,-1.27341 -4.6692,0 -9.7628,2.30426 -5.0936,2.30423 -9.7628,5.8819 v 50.57229 h -11.3999 v -67.73293 h 11.3999 v 7.51916 q 5.3362,-4.42659 11.0362,-6.91275 5.7,-2.48617 11.7032,-2.48617 10.9755,0 16.7362,6.60955 5.7606,6.60958 5.7606,19.0404 z"
             id="path4286"
             inkscape:connector-curvature="0"
             style="font-style:normal;font-variant:normal;font-weight:normal;font-stretch:normal;font-size:medium;line-height:125%;font-family:sans-serif;-inkscape-font-specification:sans-serif;letter-spacing:0px;word-spacing:0px;fill:#000000;fill-opacity:1;stroke:none;stroke-width:1px;stroke-linecap:butt;stroke-linejoin:miter;stroke-opacity:1" />
          <path
             inkscape:export-ydpi="90"
             inkscape:export-xdpi="90"
             inkscape:export-filename="E:\Users\Sergio Ernesto TS\Pictures\Created Pictures\Splash Pictures\curve_insperion.png"
             sodipodi:nodetypes="ccc"
             inkscape:connector-curvature="0"
             id="rect4158-7"
             d="M 939.75321,630.3864 C 519.41996,567.7418 477.23439,611.19528 552.16163,681.85715 429.46145,620.89151 433.37905,514.38336 939.75321,630.3864 Z"
             style="opacity:1;fill:#000080;fill-opacity:1;stroke:none;stroke-width:10;stroke-miterlimit:4;stroke-dasharray:none;stroke-opacity:1" />
          <path
             sodipodi:nodetypes="ccccc"
             inkscape:connector-curvature="0"
             id="rect4393"
             d="m 568.58882,629.57636 10.55943,-9.33331 v 97.14679 l -10.55943,10.03146 z"
             style="opacity:1;fill:#000000;fill-opacity:1;stroke:none;stroke-width:10;stroke-miterlimit:4;stroke-dasharray:none;stroke-opacity:1" />
          <circle
             r="10.090022"
             cy="631.2243"
             cx="952.71747"
             id="path4413"
             style="opacity:1;fill:#00c9ff;fill-opacity:1;stroke:none;stroke-width:10;stroke-miterlimit:4;stroke-dasharray:none;stroke-opacity:1" />
          <path
             d="m 818.02328,752.00011 h 2.71636 v 17.79081 h 9.7762 v 2.28605 h -12.49256 z"
             style="font-style:normal;font-variant:normal;font-weight:normal;font-stretch:normal;font-size:medium;line-height:125%;font-family:Corbel;-inkscape-font-specification:Corbel;letter-spacing:0px;word-spacing:0px;fill:#000000;fill-opacity:1;stroke:none;stroke-width:1px;stroke-linecap:butt;stroke-linejoin:miter;stroke-opacity:1"
             id="path4312"
             inkscape:connector-curvature="0" />
          <path
             d="m 840.09034,764.50612 q -2.99876,0 -4.15522,0.68582 -1.15647,0.68581 -1.15647,2.33983 0,1.31784 0.86063,2.09778 0.87407,0.7665 2.36672,0.7665 2.05745,0 3.2946,-1.45231 1.2506,-1.46576 1.2506,-3.88628 v -0.55134 z m 4.93517,-1.02199 v 8.59284 h -2.47431 v -2.28605 q -0.84718,1.37163 -2.11123,2.03055 -1.26405,0.64547 -3.09288,0.64547 -2.31295,0 -3.68457,-1.29094 -1.35818,-1.3044 -1.35818,-3.48286 0,-2.54155 1.69436,-3.83249 1.70781,-1.29094 5.08309,-1.29094 h 3.46941 v -0.24205 q 0,-1.70781 -1.12958,-2.63568 -1.11612,-0.94131 -3.14667,-0.94131 -1.29094,0 -2.51465,0.30929 -1.22371,0.30928 -2.35328,0.92786 v -2.28604 q 1.35818,-0.52445 2.63568,-0.77995 1.27749,-0.26895 2.48775,-0.26895 3.2677,0 4.88138,1.69437 1.61368,1.69436 1.61368,5.13688 z"
             style="font-style:normal;font-variant:normal;font-weight:normal;font-stretch:normal;font-size:medium;line-height:125%;font-family:Corbel;-inkscape-font-specification:Corbel;letter-spacing:0px;word-spacing:0px;fill:#000000;fill-opacity:1;stroke:none;stroke-width:1px;stroke-linecap:butt;stroke-linejoin:miter;stroke-opacity:1"
             id="path4314"
             inkscape:connector-curvature="0" />
          <path
             d="m 859.01073,752.00011 h 2.71636 v 20.07686 h -2.71636 z"
             style="font-style:normal;font-variant:normal;font-weight:normal;font-stretch:normal;font-size:medium;line-height:125%;font-family:Corbel;-inkscape-font-specification:Corbel;letter-spacing:0px;word-spacing:0px;fill:#000000;fill-opacity:1;stroke:none;stroke-width:1px;stroke-linecap:butt;stroke-linejoin:miter;stroke-opacity:1"
             id="path4316"
             inkscape:connector-curvature="0" />
          <path
             d="m 879.54479,762.98658 v 9.09039 h -2.47431 v -9.00971 q 0,-2.13813 -0.83373,-3.20047 -0.83373,-1.06234 -2.5012,-1.06234 -2.00366,0 -3.16012,1.2775 -1.15647,1.2775 -1.15647,3.48286 v 8.51216 h -2.48776 v -15.06101 h 2.48776 v 2.33984 q 0.88752,-1.35818 2.08433,-2.03055 1.21026,-0.67237 2.7836,-0.67237 2.59533,0 3.92662,1.61369 1.33128,1.60022 1.33128,4.72001 z"
             style="font-style:normal;font-variant:normal;font-weight:normal;font-stretch:normal;font-size:medium;line-height:125%;font-family:Corbel;-inkscape-font-specification:Corbel;letter-spacing:0px;word-spacing:0px;fill:#000000;fill-opacity:1;stroke:none;stroke-width:1px;stroke-linecap:butt;stroke-linejoin:miter;stroke-opacity:1"
             id="path4318"
             inkscape:connector-curvature="0" />
          <path
             d="m 894.41753,764.37165 q 0,-2.68946 -1.11612,-4.16867 -1.10269,-1.47921 -3.10634,-1.47921 -1.9902,0 -3.10633,1.47921 -1.10268,1.47921 -1.10268,4.16867 0,2.67602 1.10268,4.15522 1.11613,1.47921 3.10633,1.47921 2.00365,0 3.10634,-1.47921 1.11612,-1.4792 1.11612,-4.15522 z m 2.47431,5.83614 q 0,3.84593 -1.70781,5.71511 -1.70781,1.88263 -5.23101,1.88263 -1.30439,0 -2.46086,-0.20171 -1.15647,-0.18827 -2.2457,-0.59168 v -2.40708 q 1.08923,0.59168 2.15157,0.87408 1.06234,0.28239 2.16502,0.28239 2.43397,0 3.64422,-1.27749 1.21026,-1.26405 1.21026,-3.83249 v -1.22371 q -0.76649,1.33129 -1.9633,1.99021 -1.19682,0.65892 -2.86428,0.65892 -2.77015,0 -4.46452,-2.11123 -1.69436,-2.11124 -1.69436,-5.59409 0,-3.49631 1.69436,-5.60753 1.69437,-2.11124 4.46452,-2.11124 1.66746,0 2.86428,0.65892 1.19681,0.65892 1.9633,1.99021 v -2.28605 h 2.47431 z"
             style="font-style:normal;font-variant:normal;font-weight:normal;font-stretch:normal;font-size:medium;line-height:125%;font-family:Corbel;-inkscape-font-specification:Corbel;letter-spacing:0px;word-spacing:0px;fill:#000000;fill-opacity:1;stroke:none;stroke-width:1px;stroke-linecap:butt;stroke-linejoin:miter;stroke-opacity:1"
             id="path4320"
             inkscape:connector-curvature="0" />
          <path
             d="m 914.87091,763.92789 v 1.21026 h -11.37644 q 0.16137,2.55499 1.533,3.89972 1.38507,1.33129 3.84594,1.33129 1.42541,0 2.75669,-0.34963 1.34474,-0.34963 2.66258,-1.04889 v 2.33983 q -1.33129,0.56479 -2.72981,0.86063 -1.39852,0.29584 -2.83739,0.29584 -3.60388,0 -5.71511,-2.09778 -2.09778,-2.09779 -2.09778,-5.67477 0,-3.69802 1.9902,-5.86304 2.00365,-2.17847 5.39238,-2.17847 3.03909,0 4.8007,1.96331 1.77504,1.94987 1.77504,5.3117 z m -2.47431,-0.72616 q -0.0269,-2.03055 -1.14302,-3.2408 -1.10268,-1.21026 -2.93152,-1.21026 -2.07088,0 -3.32149,1.16992 -1.23715,1.16991 -1.42541,3.29459 l 8.82144,-0.0135 z"
             style="font-style:normal;font-variant:normal;font-weight:normal;font-stretch:normal;font-size:medium;line-height:125%;font-family:Corbel;-inkscape-font-specification:Corbel;letter-spacing:0px;word-spacing:0px;fill:#000000;fill-opacity:1;stroke:none;stroke-width:1px;stroke-linecap:butt;stroke-linejoin:miter;stroke-opacity:1"
             id="path4322"
             inkscape:connector-curvature="0" />
          <path
             d="m 931.45147,762.98658 v 9.09039 h -2.47431 v -9.00971 q 0,-2.13813 -0.83373,-3.20047 -0.83374,-1.06234 -2.50121,-1.06234 -2.00365,0 -3.16012,1.2775 -1.15647,1.2775 -1.15647,3.48286 v 8.51216 h -2.48776 v -15.06101 h 2.48776 v 2.33984 q 0.88752,-1.35818 2.08433,-2.03055 1.21026,-0.67237 2.7836,-0.67237 2.59534,0 3.92662,1.61369 1.33129,1.60022 1.33129,4.72001 z"
             style="font-style:normal;font-variant:normal;font-weight:normal;font-stretch:normal;font-size:medium;line-height:125%;font-family:Corbel;-inkscape-font-specification:Corbel;letter-spacing:0px;word-spacing:0px;fill:#000000;fill-opacity:1;stroke:none;stroke-width:1px;stroke-linecap:butt;stroke-linejoin:miter;stroke-opacity:1"
             id="path4324"
             inkscape:connector-curvature="0" />
          <path
             d="m 936.41353,757.01596 h 2.47431 v 15.06101 h -2.47431 z m 0,-5.86303 h 2.47431 v 3.13323 h -2.47431 z"
             style="font-style:normal;font-variant:normal;font-weight:normal;font-stretch:normal;font-size:medium;line-height:125%;font-family:Corbel;-inkscape-font-specification:Corbel;letter-spacing:0px;word-spacing:0px;fill:#000000;fill-opacity:1;stroke:none;stroke-width:1px;stroke-linecap:butt;stroke-linejoin:miter;stroke-opacity:1"
             id="path4326"
             inkscape:connector-curvature="0" />
          <path
             d="m 956.93415,763.92789 v 1.21026 h -11.37643 q 0.16137,2.55499 1.53299,3.89972 1.38508,1.33129 3.84594,1.33129 1.42541,0 2.7567,-0.34963 1.34473,-0.34963 2.66257,-1.04889 v 2.33983 q -1.33129,0.56479 -2.72981,0.86063 -1.39852,0.29584 -2.83738,0.29584 -3.60389,0 -5.71512,-2.09778 -2.09778,-2.09779 -2.09778,-5.67477 0,-3.69802 1.9902,-5.86304 2.00365,-2.17847 5.39238,-2.17847 3.0391,0 4.80069,1.96331 1.77505,1.94987 1.77505,5.3117 z m -2.4743,-0.72616 q -0.0269,-2.03055 -1.14303,-3.2408 -1.10268,-1.21026 -2.93152,-1.21026 -2.07088,0 -3.32148,1.16992 -1.23716,1.16991 -1.42542,3.29459 l 8.82145,-0.0135 z"
             style="font-style:normal;font-variant:normal;font-weight:normal;font-stretch:normal;font-size:medium;line-height:125%;font-family:Corbel;-inkscape-font-specification:Corbel;letter-spacing:0px;word-spacing:0px;fill:#000000;fill-opacity:1;stroke:none;stroke-width:1px;stroke-linecap:butt;stroke-linejoin:miter;stroke-opacity:1"
             id="path4328"
             inkscape:connector-curvature="0" />
          <path
             d="m 969.72256,759.3289 q -0.41686,-0.24205 -0.91442,-0.34963 -0.4841,-0.12102 -1.07578,-0.12102 -2.09778,0 -3.22736,1.37162 -1.11613,1.35818 -1.11613,3.91317 v 7.93393 h -2.48775 v -15.06101 h 2.48775 v 2.33984 q 0.77995,-1.37163 2.03055,-2.03055 1.2506,-0.67237 3.0391,-0.67237 0.25549,0 0.56478,0.0403 0.30929,0.0269 0.68582,0.0941 l 0.0135,2.54155 z"
             style="font-style:normal;font-variant:normal;font-weight:normal;font-stretch:normal;font-size:medium;line-height:125%;font-family:Corbel;-inkscape-font-specification:Corbel;letter-spacing:0px;word-spacing:0px;fill:#000000;fill-opacity:1;stroke:none;stroke-width:1px;stroke-linecap:butt;stroke-linejoin:miter;stroke-opacity:1"
             id="path4330"
             inkscape:connector-curvature="0" />
          <path
             d="m 975.45111,750.05025 h 2.67602 l -4.38383,5.05619 h -2.05744 z m -3.10633,6.96571 h 2.47431 v 15.06101 h -2.47431 z m 1.23715,-0.36308 z"
             style="font-style:normal;font-variant:normal;font-weight:normal;font-stretch:normal;font-size:medium;line-height:125%;font-family:Corbel;-inkscape-font-specification:Corbel;letter-spacing:0px;word-spacing:0px;fill:#000000;fill-opacity:1;stroke:none;stroke-width:1px;stroke-linecap:butt;stroke-linejoin:miter;stroke-opacity:1"
             id="path4332"
             inkscape:connector-curvature="0" />
          <path
             d="m 986.82756,764.50612 q -2.99876,0 -4.15523,0.68582 -1.15647,0.68581 -1.15647,2.33983 0,1.31784 0.86063,2.09778 0.87408,0.7665 2.36673,0.7665 2.05744,0 3.2946,-1.45231 1.2506,-1.46576 1.2506,-3.88628 v -0.55134 z m 4.93514,-1.02199 v 8.59284 h -2.47428 v -2.28605 q -0.84719,1.37163 -2.11123,2.03055 -1.26405,0.64547 -3.09289,0.64547 -2.31294,0 -3.68457,-1.29094 -1.35818,-1.3044 -1.35818,-3.48286 0,-2.54155 1.69437,-3.83249 1.70781,-1.29094 5.08309,-1.29094 h 3.46941 v -0.24205 q 0,-1.70781 -1.12958,-2.63568 -1.11612,-0.94131 -3.14667,-0.94131 -1.29095,0 -2.51465,0.30929 -1.22371,0.30928 -2.35328,0.92786 v -2.28604 q 1.35818,-0.52445 2.63567,-0.77995 1.2775,-0.26895 2.48776,-0.26895 3.2677,0 4.88139,1.69437 1.61364,1.69436 1.61364,5.13688 z"
             style="font-style:normal;font-variant:normal;font-weight:normal;font-stretch:normal;font-size:medium;line-height:125%;font-family:Corbel;-inkscape-font-specification:Corbel;letter-spacing:0px;word-spacing:0px;fill:#000000;fill-opacity:1;stroke:none;stroke-width:1px;stroke-linecap:butt;stroke-linejoin:miter;stroke-opacity:1"
             id="path4334"
             inkscape:connector-curvature="0" />
          <path
             d="m 1015.5511,759.30201 v -8.14908 h 2.4743 v 20.92404 h -2.4743 v -2.25915 q -0.78,1.34473 -1.9768,2.00365 -1.1834,0.64547 -2.8508,0.64547 -2.7298,0 -4.4511,-2.17847 -1.7078,-2.17846 -1.7078,-5.72856 0,-3.55009 1.7078,-5.72856 1.7213,-2.17847 4.4511,-2.17847 1.6674,0 2.8508,0.65892 1.1968,0.64547 1.9768,1.99021 z m -8.4315,5.2579 q 0,2.72981 1.1161,4.2897 1.1296,1.54644 3.0929,1.54644 1.9633,0 3.0929,-1.54644 1.1296,-1.55989 1.1296,-4.2897 0,-2.7298 -1.1296,-4.27625 -1.1296,-1.55989 -3.0929,-1.55989 -1.9633,0 -3.0929,1.55989 -1.1161,1.54645 -1.1161,4.27625 z"
             style="font-style:normal;font-variant:normal;font-weight:normal;font-stretch:normal;font-size:medium;line-height:125%;font-family:Corbel;-inkscape-font-specification:Corbel;letter-spacing:0px;word-spacing:0px;fill:#000000;fill-opacity:1;stroke:none;stroke-width:1px;stroke-linecap:butt;stroke-linejoin:miter;stroke-opacity:1"
             id="path4336"
             inkscape:connector-curvature="0" />
          <path
             d="m 1036.0044,763.92789 v 1.21026 h -11.3764 q 0.1613,2.55499 1.533,3.89972 1.3851,1.33129 3.8459,1.33129 1.4254,0 2.7567,-0.34963 1.3448,-0.34963 2.6626,-1.04889 v 2.33983 q -1.3313,0.56479 -2.7298,0.86063 -1.3986,0.29584 -2.8374,0.29584 -3.6039,0 -5.7151,-2.09778 -2.0978,-2.09779 -2.0978,-5.67477 0,-3.69802 1.9902,-5.86304 2.0036,-2.17847 5.3924,-2.17847 3.0391,0 4.8007,1.96331 1.775,1.94987 1.775,5.3117 z m -2.4743,-0.72616 q -0.027,-2.03055 -1.143,-3.2408 -1.1027,-1.21026 -2.9315,-1.21026 -2.0709,0 -3.3215,1.16992 -1.2372,1.16991 -1.4254,3.29459 l 8.8214,-0.0135 z"
             style="font-style:normal;font-variant:normal;font-weight:normal;font-stretch:normal;font-size:medium;line-height:125%;font-family:Corbel;-inkscape-font-specification:Corbel;letter-spacing:0px;word-spacing:0px;fill:#000000;fill-opacity:1;stroke:none;stroke-width:1px;stroke-linecap:butt;stroke-linejoin:miter;stroke-opacity:1"
             id="path4338"
             inkscape:connector-curvature="0" />
          <path
             d="m 1051.2806,752.73971 v 4.27625 h 5.0965 v 1.92297 h -5.0965 v 8.17598 q 0,1.84228 0.4975,2.36672 0.511,0.52445 2.0574,0.52445 h 2.5416 v 2.07089 h -2.5416 q -2.8642,0 -3.9534,-1.06234 -1.0893,-1.07579 -1.0893,-3.89972 v -8.17598 h -1.8154 v -1.92297 h 1.8154 v -4.27625 z"
             style="font-style:normal;font-variant:normal;font-weight:normal;font-stretch:normal;font-size:medium;line-height:125%;font-family:Corbel;-inkscape-font-specification:Corbel;letter-spacing:0px;word-spacing:0px;fill:#000000;fill-opacity:1;stroke:none;stroke-width:1px;stroke-linecap:butt;stroke-linejoin:miter;stroke-opacity:1"
             id="path4340"
             inkscape:connector-curvature="0" />
          <path
             d="m 1059.3893,766.13325 v -9.11729 h 2.4743 v 9.02316 q 0,2.13812 0.8338,3.21391 0.8337,1.06234 2.5012,1.06234 2.0036,0 3.1601,-1.2775 1.1699,-1.27749 1.1699,-3.48286 v -8.53905 h 2.4743 v 15.06101 h -2.4743 v -2.31294 q -0.901,1.37162 -2.0978,2.04399 -1.1833,0.65892 -2.7567,0.65892 -2.5953,0 -3.94,-1.61368 -1.3448,-1.61368 -1.3448,-4.72001 z m 6.2261,-9.48037 z"
             style="font-style:normal;font-variant:normal;font-weight:normal;font-stretch:normal;font-size:medium;line-height:125%;font-family:Corbel;-inkscape-font-specification:Corbel;letter-spacing:0px;word-spacing:0px;fill:#000000;fill-opacity:1;stroke:none;stroke-width:1px;stroke-linecap:butt;stroke-linejoin:miter;stroke-opacity:1"
             id="path4342"
             inkscape:connector-curvature="0" />
          <path
             d="m 1086.0016,752.00011 h 4.0476 l 5.1235,13.66248 5.1503,-13.66248 h 4.0476 v 20.07686 h -2.6491 v -17.62945 l -5.1772,13.77006 h -2.7298 l -5.1772,-13.77006 v 17.62945 h -2.6357 z"
             style="font-style:normal;font-variant:normal;font-weight:normal;font-stretch:normal;font-size:medium;line-height:125%;font-family:Corbel;-inkscape-font-specification:Corbel;letter-spacing:0px;word-spacing:0px;fill:#000000;fill-opacity:1;stroke:none;stroke-width:1px;stroke-linecap:butt;stroke-linejoin:miter;stroke-opacity:1"
             id="path4344"
             inkscape:connector-curvature="0" />
          <path
             d="m 1109.4133,766.13325 v -9.11729 h 2.4744 v 9.02316 q 0,2.13812 0.8337,3.21391 0.8338,1.06234 2.5012,1.06234 2.0037,0 3.1602,-1.2775 1.1698,-1.27749 1.1698,-3.48286 v -8.53905 h 2.4744 v 15.06101 h -2.4744 v -2.31294 q -0.9009,1.37162 -2.0977,2.04399 -1.1834,0.65892 -2.7567,0.65892 -2.5954,0 -3.9401,-1.61368 -1.3448,-1.61368 -1.3448,-4.72001 z m 6.2262,-9.48037 z"
             style="font-style:normal;font-variant:normal;font-weight:normal;font-stretch:normal;font-size:medium;line-height:125%;font-family:Corbel;-inkscape-font-specification:Corbel;letter-spacing:0px;word-spacing:0px;fill:#000000;fill-opacity:1;stroke:none;stroke-width:1px;stroke-linecap:butt;stroke-linejoin:miter;stroke-opacity:1"
             id="path4346"
             inkscape:connector-curvature="0" />
          <path
             d="m 1139.6699,762.98658 v 9.09039 h -2.4744 v -9.00971 q 0,-2.13813 -0.8337,-3.20047 -0.8337,-1.06234 -2.5012,-1.06234 -2.0036,0 -3.1601,1.2775 -1.1565,1.2775 -1.1565,3.48286 v 8.51216 h -2.4877 v -15.06101 h 2.4877 v 2.33984 q 0.8876,-1.35818 2.0844,-2.03055 1.2102,-0.67237 2.7836,-0.67237 2.5953,0 3.9266,1.61369 1.3313,1.60022 1.3313,4.72001 z"
             style="font-style:normal;font-variant:normal;font-weight:normal;font-stretch:normal;font-size:medium;line-height:125%;font-family:Corbel;-inkscape-font-specification:Corbel;letter-spacing:0px;word-spacing:0px;fill:#000000;fill-opacity:1;stroke:none;stroke-width:1px;stroke-linecap:butt;stroke-linejoin:miter;stroke-opacity:1"
             id="path4348"
             inkscape:connector-curvature="0" />
          <path
             d="m 1154.5426,759.30201 v -8.14908 h 2.4743 v 20.92404 h -2.4743 v -2.25915 q -0.78,1.34473 -1.9768,2.00365 -1.1833,0.64547 -2.8508,0.64547 -2.7298,0 -4.451,-2.17847 -1.7079,-2.17846 -1.7079,-5.72856 0,-3.55009 1.7079,-5.72856 1.7212,-2.17847 4.451,-2.17847 1.6675,0 2.8508,0.65892 1.1968,0.64547 1.9768,1.99021 z m -8.4315,5.2579 q 0,2.72981 1.1162,4.2897 1.1295,1.54644 3.0928,1.54644 1.9633,0 3.0929,-1.54644 1.1296,-1.55989 1.1296,-4.2897 0,-2.7298 -1.1296,-4.27625 -1.1296,-1.55989 -3.0929,-1.55989 -1.9633,0 -3.0928,1.55989 -1.1162,1.54645 -1.1162,4.27625 z"
             style="font-style:normal;font-variant:normal;font-weight:normal;font-stretch:normal;font-size:medium;line-height:125%;font-family:Corbel;-inkscape-font-specification:Corbel;letter-spacing:0px;word-spacing:0px;fill:#000000;fill-opacity:1;stroke:none;stroke-width:1px;stroke-linecap:butt;stroke-linejoin:miter;stroke-opacity:1"
             id="path4350"
             inkscape:connector-curvature="0" />
          <path
             d="m 1167.9496,758.75067 q -1.9902,0 -3.1467,1.55988 -1.1565,1.54645 -1.1565,4.24936 0,2.70291 1.1431,4.26281 1.1564,1.54644 3.1601,1.54644 1.9767,0 3.1332,-1.55989 1.1565,-1.55989 1.1565,-4.24936 0,-2.67602 -1.1565,-4.23591 -1.1565,-1.57333 -3.1332,-1.57333 z m 0,-2.09779 q 3.2274,0 5.0696,2.09779 1.8423,2.09778 1.8423,5.80924 0,3.69802 -1.8423,5.80925 -1.8422,2.09778 -5.0696,2.09778 -3.2408,0 -5.0831,-2.09778 -1.8288,-2.11123 -1.8288,-5.80925 0,-3.71146 1.8288,-5.80924 1.8423,-2.09779 5.0831,-2.09779 z"
             style="font-style:normal;font-variant:normal;font-weight:normal;font-stretch:normal;font-size:medium;line-height:125%;font-family:Corbel;-inkscape-font-specification:Corbel;letter-spacing:0px;word-spacing:0px;fill:#000000;fill-opacity:1;stroke:none;stroke-width:1px;stroke-linecap:butt;stroke-linejoin:miter;stroke-opacity:1"
             id="path4352"
             inkscape:connector-curvature="0" />
        </g>
      </g>
    </g>
  </g>
</svg>
